<?xml version="1.0" encoding="UTF-8"?>
<svg width="232px" height="80px" viewBox="0 0 232 80" version="1.1" xmlns="http://www.w3.org/2000/svg" xmlns:xlink="http://www.w3.org/1999/xlink">
    <!-- Generator: Sketch 49.3 (51167) - http://www.bohemiancoding.com/sketch -->
    <title>Logo Flash &amp; Co</title>
    <desc>Created with Sketch.</desc>
    <defs>
        <rect id="path-1" x="0" y="0" width="232" height="80"></rect>
    </defs>
    <g id="Logo-Flash-&amp;-Co" stroke="none" stroke-width="1" fill="none" fill-rule="evenodd">
        <g>
            <mask id="mask-2" fill="white">
                <use xlink:href="#path-1"></use>
            </mask>
            <g id="Rectangle"></g>
            <g mask="url(#mask-2)">
                <g transform="translate(19.000000, 24.000000)">
                    <path d="M42.576,7.256 L42.576,16.12 L44.112,16.12 C45.2640058,16.12 46.0533312,15.949335 46.48,15.608 C46.9066688,15.266665 47.1306666,14.6266714 47.152,13.688 C47.7706698,13.4746656 48.517329,13.368 49.392,13.368 C49.3279997,14.4133386 49.296,15.6293264 49.296,17.016 C49.296,18.5093408 49.3279997,19.7679949 49.392,20.792 C48.4746621,20.792 47.749336,20.7066675 47.216,20.536 C47.1306662,19.5546618 46.8746688,18.893335 46.448,18.552 C46.0213312,18.210665 45.2426723,18.04 44.112,18.04 L42.576,18.04 L42.576,21.4 C42.576,22.3386714 42.6773323,23.0639974 42.88,23.576 C43.0826677,24.0880026 43.413331,24.4559989 43.872,24.68 C44.330669,24.9040011 44.9759958,25.0479997 45.808,25.112 C45.9573341,25.5386688 46.032,26.1999955 46.032,27.096 C44.9226611,27.0319997 43.1946784,27 40.848,27 C38.3519875,27 36.5173392,27.0319997 35.344,27.096 C35.344,26.1573286 35.4079994,25.4960019 35.536,25.112 C36.1333363,25.0693331 36.5813318,24.9573342 36.88,24.776 C37.1786682,24.5946658 37.3919994,24.2853355 37.52,23.848 C37.6480006,23.4106645 37.712,22.754671 37.712,21.88 L37.712,10.456 C37.712,9.58132896 37.6533339,8.93600208 37.536,8.52 C37.4186661,8.10399792 37.2160014,7.80533424 36.928,7.624 C36.6399986,7.44266576 36.1866698,7.32000032 35.568,7.256 C35.4186659,6.78666432 35.344,6.1253376 35.344,5.272 C37.0720086,5.33600032 39.4613181,5.368 42.512,5.368 C46.9920224,5.368 49.9679926,5.33600032 51.44,5.272 C51.5893341,7.66134528 51.8133318,9.46399392 52.112,10.68 C51.5146637,11.0000016 50.7040051,11.16 49.68,11.16 C49.5093325,9.92266048 49.0826701,8.96267008 48.4,8.28 C47.7173299,7.59732992 46.5546749,7.256 44.912,7.256 L42.576,7.256 Z M53.808,27.096 C53.808,26.2426624 53.8826659,25.5813357 54.032,25.112 C54.8853376,25.0693331 55.4559986,24.8613352 55.744,24.488 C56.0320014,24.1146648 56.176,23.394672 56.176,22.328 L56.176,9.048 C56.176,8.34399648 56.0106683,7.83733488 55.68,7.528 C55.3493317,7.21866512 54.7253379,7.04266688 53.808,7 C53.808,6.18932928 53.9253322,5.56000224 54.16,5.112 C55.2053386,5.112 56.3039942,5.00000112 57.456,4.776 C58.6080058,4.55199888 59.4186643,4.31200128 59.888,4.056 C60.5280032,4.31200128 60.848,4.87732896 60.848,5.752 L60.848,22.328 C60.848,23.394672 60.9866653,24.1146648 61.264,24.488 C61.5413347,24.8613352 62.0746627,25.0693331 62.864,25.112 C62.9920006,25.5173354 63.056,26.1786621 63.056,27.096 C62.1386621,27.0319997 60.6026774,27 58.448,27 C56.2506557,27 54.7040045,27.0319997 53.808,27.096 Z M80.624,24.184 C80.6453334,24.3120006 80.656,24.5146653 80.656,24.792 C80.656,25.3040026 80.560001,25.7839978 80.368,26.232 C78.6186579,26.2960003 77.0293405,26.6479968 75.6,27.288 C75.2373315,27.1386659 74.9760008,26.9200014 74.816,26.632 C74.6559992,26.3439986 74.576,25.9440026 74.576,25.432 C74.576,25.2186656 74.6186662,24.8133363 74.704,24.216 C74.362665,25.0053373 73.9146694,25.6239978 73.36,26.072 C72.4639955,26.8400038 71.216008,27.224 69.616,27.224 C68.1653261,27.224 67.0453373,26.9146698 66.256,26.296 C65.4666627,25.6773302 65.072,24.7920058 65.072,23.64 C65.072,21.8266576 65.9253248,20.5306706 67.632,19.752 C69.3386752,18.9733294 71.4933203,18.4026685 74.096,18.04 C74.096,17.1013286 74.0480005,16.3920024 73.952,15.912 C73.8559995,15.4319976 73.6693347,15.0320016 73.392,14.712 C72.9226643,14.178664 72.325337,13.912 71.6,13.912 C70.7893293,13.912 70.1866686,14.2533299 69.792,14.936 C69.3973314,15.6186701 69.1573338,16.4719949 69.072,17.496 C68.4533302,17.496 67.9360021,17.4746669 67.52,17.432 C67.1039979,17.3893331 66.725335,17.3040006 66.384,17.176 C66.4266669,16.6213306 66.448,16.173335 66.448,15.832 C66.448,14.9359955 66.3626675,14.1040038 66.192,13.336 C67.1093379,12.9306646 68.1493275,12.6106678 69.312,12.376 C70.4746725,12.1413322 71.5786614,12.024 72.624,12.024 C74.8000109,12.024 76.3786618,12.5146618 77.36,13.496 C77.8293357,13.9653357 78.1813322,14.6106626 78.416,15.432 C78.6506678,16.2533374 78.768,17.3786595 78.768,18.808 L78.768,21.56 C78.768,22.285337 78.8106662,22.8239982 78.896,23.176 C78.9813338,23.5280018 79.1519987,23.7786659 79.408,23.928 C79.6640013,24.0773341 80.0693306,24.1626666 80.624,24.184 Z M74.096,19.768 C72.6453261,20.0240013 71.557337,20.3653312 70.832,20.792 C70.106663,21.2186688 69.744,21.8799955 69.744,22.776 C69.744,23.3520029 69.8879986,23.7839986 70.176,24.072 C70.4640014,24.3600014 70.8213312,24.504 71.248,24.504 C71.7173357,24.504 72.1706645,24.3546682 72.608,24.056 C73.0453355,23.7573318 73.4026653,23.3146696 73.68,22.728 C73.9573347,22.1413304 74.096,21.4320042 74.096,20.6 L74.096,19.768 Z M94.128,16.472 C93.8506653,16.6426675 93.4880022,16.7813328 93.04,16.888 C92.5919978,16.9946672 92.1333357,17.048 91.664,17.048 C91.5573328,16.173329 91.2480026,15.4480029 90.736,14.872 C90.2239974,14.2959971 89.5200045,14.008 88.624,14.008 C88.1333309,14.008 87.7440014,14.1306654 87.456,14.376 C87.1679986,14.6213346 87.024,14.9466646 87.024,15.352 C87.024,15.693335 87.0986659,15.9813322 87.248,16.216 C87.3973341,16.4506678 87.7226642,16.7119986 88.224,17 C88.7253358,17.2880014 89.4879949,17.6346646 90.512,18.04 C91.7493395,18.5306691 92.7039966,18.9946645 93.376,19.432 C94.0480034,19.8693355 94.5279986,20.3493307 94.816,20.872 C95.1040014,21.3946693 95.248,22.018663 95.248,22.744 C95.248,24.1733405 94.6453394,25.287996 93.44,26.088 C92.2346606,26.888004 90.5866771,27.288 88.496,27.288 C87.237327,27.288 86.1760043,27.1973342 85.312,27.016 C84.4479957,26.8346658 83.578671,26.5520019 82.704,26.168 C82.7893338,25.634664 82.832,24.9520042 82.832,24.12 C82.832,23.3519962 82.8000003,22.7120026 82.736,22.2 C83.0346682,22.0293325 83.4186643,21.8960005 83.888,21.8 C84.3573357,21.7039995 84.8266643,21.656 85.296,21.656 C85.4026672,22.8080058 85.7333306,23.687997 86.288,24.296 C86.8426694,24.904003 87.557329,25.208 88.432,25.208 C89.0506698,25.208 89.5519981,25.0640014 89.936,24.776 C90.3200019,24.4879986 90.512,24.1093357 90.512,23.64 C90.512,23.1279974 90.3093354,22.7066683 89.904,22.376 C89.4986646,22.0453317 88.6773395,21.6346691 87.44,21.144 C86.3306611,20.7173312 85.4560032,20.3013354 84.816,19.896 C84.1759968,19.4906646 83.685335,18.9946696 83.344,18.408 C83.002665,17.8213304 82.832,17.0800045 82.832,16.184 C82.832,14.8399933 83.4079942,13.8160035 84.56,13.112 C85.7120058,12.4079965 87.1413248,12.056 88.848,12.056 C89.9573389,12.056 90.9173293,12.1359992 91.728,12.296 C92.5386707,12.4560008 93.306663,12.7173315 94.032,13.08 C94.0106666,13.3573347 94,13.7946637 94,14.392 C94,15.1813373 94.0426662,15.8746637 94.128,16.472 Z M116.016,25.112 C116.186668,25.5173354 116.272,26.1786621 116.272,27.096 C114.415991,27.0319997 113.082671,27 112.272,27 C110.202656,27 108.666672,27.0319997 107.664,27.096 C107.664,26.221329 107.749332,25.5600022 107.92,25.112 C108.53867,25.112 108.997332,24.8880022 109.296,24.44 C109.594668,23.9919978 109.744,23.2133389 109.744,22.104 L109.744,18.744 C109.744,17.4639936 109.541335,16.5466694 109.136,15.992 C108.730665,15.4373306 108.133337,15.16 107.344,15.16 C106.490662,15.16 105.760003,15.6133288 105.152,16.52 C104.543997,17.4266712 104.24,18.679992 104.24,20.28 L104.24,22.328 C104.24,23.394672 104.378665,24.1253314 104.656,24.52 C104.933335,24.9146686 105.391997,25.112 106.032,25.112 C106.160001,25.3893347 106.24,25.6773318 106.272,25.976 C106.304,26.2746682 106.32,26.6479978 106.32,27.096 C105.402662,27.0319997 103.930677,27 101.904,27 C99.7279891,27 98.1600048,27.0319997 97.2,27.096 C97.2,26.1786621 97.2853325,25.5173354 97.456,25.112 C98.2880042,25.112 98.8479986,24.9200019 99.136,24.536 C99.4240014,24.1519981 99.568,23.4160054 99.568,22.328 L99.568,9.24 C99.568,8.45066272 99.4133349,7.89066832 99.104,7.56 C98.7946651,7.22933168 98.1600048,7.04266688 97.2,7 C97.2,6.18932928 97.3173322,5.56000224 97.552,5.112 C98.5973386,5.112 99.6959942,5.00000112 100.848,4.776 C102.000006,4.55199888 102.810664,4.31200128 103.28,4.056 C103.920003,4.31200128 104.24,4.87732896 104.24,5.752 L104.24,13.816 C104.24,14.2853357 104.133334,14.9253293 103.92,15.736 C103.962667,15.6719997 104.063999,15.4640018 104.224,15.112 C104.384001,14.7599982 104.581332,14.4453347 104.816,14.168 C105.328003,13.6133306 105.967996,13.1493352 106.736,12.776 C107.504004,12.4026648 108.357329,12.216 109.296,12.216 C110.768007,12.216 111.989328,12.6426624 112.96,13.496 C113.930672,14.3493376 114.416,15.6613245 114.416,17.432 L114.416,22.328 C114.416,23.3733386 114.533332,24.0986646 114.768,24.504 C115.002668,24.9093354 115.418664,25.112 116.016,25.112 Z M143.184,22.712 C143.781336,23.3520032 144.325331,23.7786656 144.816,23.992 C145.306669,24.2053344 145.978662,24.3333331 146.832,24.376 C146.832,25.2933379 146.725334,26.0613302 146.512,26.68 C145.743996,26.68 144.810672,26.7386661 143.712,26.856 C142.613328,26.9733339 141.69067,27.1173325 140.944,27.288 C140.517331,26.7119971 139.877338,25.890672 139.024,24.824 C138.149329,25.698671 137.226672,26.3333314 136.256,26.728 C135.285328,27.1226686 134.14934,27.32 132.848,27.32 C130.373321,27.32 128.51734,26.7013395 127.28,25.464 C126.04266,24.2266605 125.424,22.6053434 125.424,20.6 C125.424,17.6559853 126.991984,15.3520083 130.128,13.688 C129.615997,12.8346624 129.242668,12.0400037 129.008,11.304 C128.773332,10.5679963 128.656,9.80533728 128.656,9.016 C128.656,7.5226592 129.199995,6.3226712 130.288,5.416 C131.376005,4.5093288 133.071988,4.056 135.376,4.056 C136.464005,4.056 137.434662,4.14666576 138.288,4.328 C139.141338,4.50933424 139.983996,4.80266464 140.816,5.208 C140.645332,6.0613376 140.56,6.98932832 140.56,7.992 C140.56,8.33333504 140.581333,8.86666304 140.624,9.592 C139.919996,9.8053344 138.992006,9.912 137.84,9.912 C137.733333,8.58932672 137.472002,7.61333648 137.056,6.984 C136.639998,6.35466352 136.016004,6.04 135.184,6.04 C134.543997,6.04 134.042668,6.23199808 133.68,6.616 C133.317332,7.00000192 133.136,7.57599616 133.136,8.344 C133.136,9.1973376 133.343998,10.0506624 133.76,10.904 C134.176002,11.7573376 134.970661,12.9519923 136.144,14.488 C137.296006,16.0026742 138.725325,17.730657 140.432,19.672 C141.11467,18.4559939 141.562666,17.4000045 141.776,16.504 C141.861334,16.0773312 141.904,15.8000006 141.904,15.672 C141.904,15.2026643 141.738668,14.8506678 141.408,14.616 C141.077332,14.3813322 140.528004,14.1786675 139.76,14.008 C139.567999,13.3893302 139.472,12.8026694 139.472,12.248 C140.112003,12.3120003 141.317324,12.344 143.088,12.344 C144.666675,12.344 145.76533,12.3120003 146.384,12.248 C146.384,12.9520035 146.309334,13.5386643 146.16,14.008 C145.455996,14.2213344 144.960001,14.4933317 144.672,14.824 C144.383999,15.1546683 144.112001,15.7146627 143.856,16.504 C143.557332,17.4000045 143.258668,18.1893299 142.96,18.872 C142.661332,19.5546701 142.277336,20.3439955 141.808,21.24 L143.184,22.712 Z M134.096,24.792 C134.77867,24.792 135.402664,24.6640013 135.968,24.408 C136.533336,24.1519987 137.093331,23.7360029 137.648,23.16 C136.922663,22.2639955 136.18667,21.4000042 135.44,20.568 C134.778663,19.7999962 133.82934,18.6693408 132.592,17.176 C131.930663,16.3226624 131.525334,15.7893344 131.376,15.576 C130.479996,16.5360048 130.032,17.8373251 130.032,19.48 C130.032,21.2293421 130.415996,22.5519955 131.184,23.448 C131.952004,24.3440045 132.922661,24.792 134.096,24.792 Z M166.704,27.288 C164.634656,27.288 162.794675,26.8133381 161.184,25.864 C159.573325,24.9146619 158.320004,23.5920085 157.424,21.896 C156.527996,20.1999915 156.08,18.2533443 156.08,16.056 C156.08,13.730655 156.581328,11.7413416 157.584,10.088 C158.586672,8.4346584 159.914658,7.18667088 161.568,6.344 C163.221342,5.50132912 165.018657,5.08 166.96,5.08 C169.328012,5.08 171.674655,5.63466112 174,6.744 C173.765332,8.08800672 173.648,9.74132352 173.648,11.704 C173.157331,11.9600013 172.325339,12.088 171.152,12.088 C171.109333,10.2533242 170.74667,8.95200384 170.064,8.184 C169.38133,7.41599616 168.400006,7.032 167.12,7.032 C165.114657,7.032 163.632005,7.81065888 162.672,9.368 C161.711995,10.9253411 161.232,12.8773216 161.232,15.224 C161.232,18.0400141 161.845327,20.3333245 163.072,22.104 C164.298673,23.8746755 166.063988,24.76 168.368,24.76 C169.221338,24.76 170.106662,24.6213347 171.024,24.344 C171.941338,24.0666653 172.837329,23.6720026 173.712,23.16 C173.882668,23.3093341 174.037333,23.517332 174.176,23.784 C174.314667,24.050668 174.405333,24.3119987 174.448,24.568 C173.381328,25.442671 172.224006,26.1146643 170.976,26.584 C169.727994,27.0533357 168.304008,27.288 166.704,27.288 Z M184.592,27.288 C182.053321,27.288 180.08534,26.62134 178.688,25.288 C177.29066,23.95466 176.592,22.1360115 176.592,19.832 C176.592,18.231992 176.943996,16.8453392 177.648,15.672 C178.352004,14.4986608 179.32266,13.6026698 180.56,12.984 C181.79734,12.3653302 183.194659,12.056 184.752,12.056 C187.333346,12.056 189.317326,12.7386598 190.704,14.104 C192.090674,15.4693402 192.784,17.2826554 192.784,19.544 C192.784,21.1013411 192.448003,22.4666608 191.776,23.64 C191.103997,24.8133392 190.14934,25.7146635 188.912,26.344 C187.67466,26.9733365 186.234675,27.288 184.592,27.288 Z M185.04,25.24 C185.978671,25.24 186.703997,24.7813379 187.216,23.864 C187.728003,22.9466621 187.984,21.7520074 187.984,20.28 C187.984,18.9786602 187.818668,17.8533381 187.488,16.904 C187.157332,15.9546619 186.714669,15.2346691 186.16,14.744 C185.605331,14.2533309 184.997337,14.008 184.336,14.008 C183.397329,14.008 182.677336,14.4559955 182.176,15.352 C181.674664,16.2480045 181.424,17.4213261 181.424,18.872 C181.424,20.7920096 181.743997,22.3333275 182.384,23.496 C183.024003,24.6586725 183.909328,25.24 185.04,25.24 Z" id="Flash-&amp;-Co" fill="#000000"></path>
                    <g id="flash-icon" stroke-width="1" fill="none">
                        <polygon id="Shape" fill="#000000" fill-rule="nonzero" points="2.65292289 31 8.39508678 17.4871795 1 17.4871795 8.06204127 0 19.4036353 0 12.8411622 11.9230769 20 11.9230769 2.67507124 31"></polygon>
                        <path d="M17.8664,0.8 L12.0936,11.6232 L11.4664,12.8 L18.2304,12.8 L3.46,29.5848 L7.94,18.7048 L8.3944,17.6 L1.172,17.6 L7.7456,0.8 L17.8664,0.8 Z M19.2,0 L7.2,0 L0,18.4 L7.2,18.4 L1.6,32 L2.4,32 L20,12 L12.8,12 L19.2,0 Z" id="Shape" fill="#000000" fill-rule="nonzero"></path>
                        <path d="M8.23326733,1.29821295 L8.2419802,1.27645146 L8.24910891,1.25388399 L8.33227723,1 L7.49742574,1 L1,17.9255996 L1.85306931,17.9255996 L8.23326733,1.29821295 Z M8.1429703,17.9255996 L7.69306931,19.0386593 L3.25742574,30 L4.86693069,28.13899 L8.4249505,19.344932 L8.87564356,18.2326784 L9,17.9255996 L8.1429703,17.9255996 Z" id="Shape" fill="#FFFFFF" fill-rule="nonzero"></path>
                    </g>
                </g>
            </g>
        </g>
    </g>
</svg>