<?xml version="1.0" encoding="UTF-8"?>
<svg width="232px" height="80px" viewBox="0 0 232 80" version="1.1" xmlns="http://www.w3.org/2000/svg" xmlns:xlink="http://www.w3.org/1999/xlink">
    <!-- Generator: Sketch 49.3 (51167) - http://www.bohemiancoding.com/sketch -->
    <title>Logo Work, Inc.</title>
    <desc>Created with Sketch.</desc>
    <defs>
        <rect id="path-1" x="0" y="0" width="232" height="80"></rect>
    </defs>
    <g id="Logo-Work,-Inc." stroke="none" stroke-width="1" fill="none" fill-rule="evenodd">
        <g>
            <mask id="mask-2" fill="white">
                <use xlink:href="#path-1"></use>
            </mask>
            <g id="Rectangle"></g>
            <g mask="url(#mask-2)" fill="#000000" id="Work,-Inc.">
                <g transform="translate(38.000000, 20.000000)">
                    <path d="M3.04,14.944 C2.42133024,13.4933261 2.112,12.501336 2.112,11.968 L0.416,12.064 L0.416,9.6 L9.856,9.6 L9.856,11.712 C9.17332992,11.6906666 8.65600176,11.7813323 8.304,11.984 C7.95199824,12.1866677 7.776,12.5439974 7.776,13.056 C7.776,13.3333347 7.83999936,13.6853312 7.968,14.112 L9.888,21.408 C9.93066688,21.5786675 10.0586656,22.0746626 10.272,22.896 C10.4853344,23.7173374 10.7093322,24.7359939 10.944,25.952 L10.976,25.952 L12.8,19.392 L15.776,9.6 L18.656,9.6 L22.304,21.376 C22.6026682,22.3573382 22.9866643,23.8933229 23.456,25.984 L23.488,25.984 L24.704,21.568 L26.496,14.88 C26.837335,13.5359933 27.274664,12.5653363 27.808,11.968 L27.808,11.936 L26.144,12.032 L25.344,12.064 L25.344,9.6 L32.544,9.6 L32.544,11.712 C31.7973296,11.7546669 31.1466694,12.0373307 30.592,12.56 C30.0373306,13.0826693 29.5573354,13.9413274 29.152,15.136 L23.936,32.192 L21.088,32.192 L17.312,20.736 C16.970665,19.7333283 16.629335,18.4213414 16.288,16.8 C16.2666666,16.607999 16.2133338,16.341335 16.128,16 L16.096,16 C15.8826656,17.3866736 15.5733354,18.783993 15.168,20.192 L11.52,32.192 L8.736,32.192 L3.04,14.944 Z M39.488,32.512 C37.9306589,32.512 36.5333395,32.1813366 35.296,31.52 C34.0586605,30.8586634 33.0880035,29.9093395 32.384,28.672 C31.6799965,27.4346605 31.328,25.9946749 31.328,24.352 C31.328,22.6239914 31.690663,21.0880067 32.416,19.744 C33.141337,18.3999933 34.1173272,17.3546704 35.344,16.608 C36.5706728,15.8613296 37.9199926,15.488 39.392,15.488 C40.9280077,15.488 42.3039939,15.8186634 43.52,16.48 C44.7360061,17.1413366 45.6959965,18.0959938 46.4,19.344 C47.1040035,20.5920062 47.456,22.0479917 47.456,23.712 C47.456,25.4826755 47.1200034,27.0293267 46.448,28.352 C45.7759966,29.6746733 44.8373394,30.698663 43.632,31.424 C42.4266606,32.149337 41.0453411,32.512 39.488,32.512 Z M39.552,30.24 C40.7253392,30.24 41.5466643,29.6960054 42.016,28.608 C42.4853357,27.5199946 42.72,26.1546749 42.72,24.512 C42.72,22.6773242 42.453336,21.0880067 41.92,19.744 C41.386664,18.3999933 40.5440058,17.728 39.392,17.728 C38.2186608,17.728 37.365336,18.2826611 36.832,19.392 C36.298664,20.5013389 36.032,21.8666586 36.032,23.488 C36.032,25.3440093 36.3199971,26.9333267 36.896,28.256 C37.4720029,29.5786733 38.3573274,30.24 39.552,30.24 Z M49.76,29.92 C50.5706707,29.92 51.0879989,29.6960022 51.312,29.248 C51.5360011,28.7999978 51.648,28.0746717 51.648,27.072 L51.648,21.696 C51.648,20.7359952 51.6906662,19.8293376 51.776,18.976 L49.536,19.072 L49.536,16.64 C50.8800067,16.64 51.9679958,16.544001 52.8,16.352 C53.6320042,16.159999 54.1866653,15.9360013 54.464,15.68 L56.032,15.68 C56.0746669,16.0000016 56.1066666,16.4159974 56.128,16.928 C56.1493334,17.4400026 56.16,17.9413309 56.16,18.432 L56.224,18.432 C57.6746739,16.4693235 59.2106586,15.488 60.832,15.488 C61.6426707,15.488 62.3093307,15.7119978 62.832,16.16 C63.3546693,16.6080022 63.616,17.269329 63.616,18.144 C63.616,18.6986694 63.4346685,19.2106643 63.072,19.68 C62.7093315,20.1493357 62.165337,20.384 61.44,20.384 C60.906664,20.384 60.4320021,20.2453347 60.016,19.968 C59.5999979,19.6906653 59.3600003,19.2106701 59.296,18.528 C58.6986637,18.528 58.0853365,18.8746632 57.456,19.568 C56.8266635,20.2613368 56.4053344,20.9493299 56.192,21.632 L56.192,26.848 C56.192,27.8720051 56.1493338,28.8106624 56.064,29.664 C56.7466701,29.5999997 57.4399965,29.568 58.144,29.568 L58.144,32 L49.76,32 L49.76,29.92 Z M64.32,29.92 C65.1306707,29.92 65.6533322,29.6960022 65.888,29.248 C66.1226678,28.7999978 66.24,28.0746717 66.24,27.072 L66.24,13.92 C66.24,12.8959949 66.2826662,11.9680042 66.368,11.136 L64.128,11.232 L64.128,8.8 C65.4720067,8.8 66.5599958,8.70400096 67.392,8.512 C68.2240042,8.31999904 68.7679987,8.09600128 69.024,7.84 L70.784,7.84 L70.784,22.432 L72.32,22.432 L74.624,19.776 C75.2853366,19.0293296 75.7013325,18.5813341 75.872,18.432 L75.872,18.4 L74.176,18.432 L74.176,16 L81.376,16 L81.376,18.048 C80.3519949,18.1546672 79.4826702,18.437331 78.768,18.896 C78.0533298,19.354669 77.4080029,19.9146634 76.832,20.576 L74.784,22.848 L74.784,22.88 C75.125335,23.0506675 75.4506651,23.2799986 75.76,23.568 C76.0693349,23.8560014 76.4373312,24.2879971 76.864,24.864 L79.008,27.68 C79.5626694,28.3626701 80.0533312,28.9066646 80.48,29.312 C80.9066688,29.7173354 81.3973306,29.92 81.952,29.92 L81.952,32 L78.272,32 C77.6319968,32 77.0666691,31.7866688 76.576,31.36 C76.0853309,30.9333312 75.4666704,30.2186717 74.72,29.216 C73.9093293,28.1279946 73.1306704,27.0186723 72.384,25.888 L71.52,24.672 L70.784,24.704 L70.784,26.848 C70.784,27.8720051 70.7413338,28.8106624 70.656,29.664 C71.3386701,29.5999997 72.0319965,29.568 72.736,29.568 L72.736,32 L64.32,32 L64.32,29.92 Z M84.992,37.088 C85.4186688,36.5333306 85.8346646,35.760005 86.24,34.768 C86.6453354,33.775995 86.8373334,32.8640042 86.816,32.032 C86.623999,32.0960003 86.4000013,32.128 86.144,32.128 C85.5253302,32.128 85.0026688,31.9520018 84.576,31.6 C84.1493312,31.2479982 83.936,30.7200035 83.936,30.016 C83.936,29.3333299 84.1546645,28.762669 84.592,28.304 C85.0293355,27.845331 85.5999965,27.616 86.304,27.616 C87.2213379,27.616 87.9306642,27.9306635 88.432,28.56 C88.9333358,29.1893365 89.184,29.9946618 89.184,30.976 C89.184,32.0213386 88.9333358,33.1519939 88.432,34.368 C87.9306642,35.5840061 87.2000048,36.7893274 86.24,37.984 L84.992,37.088 Z M100.544,29.888 C101.120003,29.8666666 101.557332,29.7973339 101.856,29.68 C102.154668,29.5626661 102.389332,29.3120019 102.56,28.928 C102.730668,28.5439981 102.816,27.9360042 102.816,27.104 L102.816,14.848 C102.816,13.6533274 102.858666,12.693337 102.944,11.968 L100.544,12.064 L100.544,9.6 L109.728,9.6 L109.728,11.712 C109.151997,11.7333334 108.714668,11.8026661 108.416,11.92 C108.117332,12.0373339 107.882668,12.2879981 107.712,12.672 C107.541332,13.0560019 107.456,13.6639958 107.456,14.496 L107.456,26.752 C107.456,27.9466726 107.413334,28.906663 107.328,29.632 C108.01067,29.5679997 108.810662,29.536 109.728,29.536 L109.728,32 L100.544,32 L100.544,29.888 Z M112.288,29.92 C113.098671,29.92 113.615999,29.6960022 113.84,29.248 C114.064001,28.7999978 114.176,28.0746717 114.176,27.072 L114.176,21.696 C114.176,20.7359952 114.218666,19.8293376 114.304,18.976 L112.064,19.072 L112.064,16.64 C113.408007,16.64 114.495996,16.544001 115.328,16.352 C116.160004,16.159999 116.714665,15.9360013 116.992,15.68 L118.56,15.68 C118.56,15.7226669 118.602666,16.2559949 118.688,17.28 L118.752,17.28 C119.37067,16.7893309 120.133329,16.3680018 121.04,16.016 C121.946671,15.6639982 122.719997,15.488 123.36,15.488 C125.301343,15.488 126.687996,16.0426611 127.52,17.152 C128.352004,18.2613389 128.768,20.0639875 128.768,22.56 L128.768,26.848 C128.768,27.8720051 128.725334,28.8106624 128.64,29.664 C129.344004,29.5999997 130.03733,29.568 130.72,29.568 L130.72,32 L122.336,32 L122.336,29.92 C123.146671,29.92 123.669332,29.6960022 123.904,29.248 C124.138668,28.7999978 124.256,28.0746717 124.256,27.072 L124.224,22.528 C124.224,21.119993 124.026669,20.0853366 123.632,19.424 C123.237331,18.7626634 122.570671,18.432 121.632,18.432 C121.119997,18.432 120.597336,18.5439989 120.064,18.768 C119.530664,18.9920011 119.082668,19.274665 118.72,19.616 L118.72,26.848 C118.72,27.8720051 118.677334,28.8106624 118.592,29.664 C119.27467,29.5999997 119.967996,29.568 120.672,29.568 L120.672,32 L112.288,32 L112.288,29.92 Z M140.192,32.512 C138.741326,32.512 137.418673,32.1866699 136.224,31.536 C135.029327,30.8853301 134.080004,29.9466728 133.376,28.72 C132.671996,27.4933272 132.32,26.0373418 132.32,24.352 C132.32,22.751992 132.671996,21.2746734 133.376,19.92 C134.080004,18.5653266 135.06666,17.488004 136.336,16.688 C137.60534,15.887996 139.039992,15.488 140.64,15.488 C141.94134,15.488 143.055995,15.6906646 143.984,16.096 C144.912005,16.5013354 145.610664,17.0399966 146.08,17.712 C146.549336,18.3840034 146.784,19.1039962 146.784,19.872 C146.784,20.5333366 146.586669,21.0986643 146.192,21.568 C145.797331,22.0373357 145.25867,22.272 144.576,22.272 C143.871996,22.272 143.344002,22.0586688 142.992,21.632 C142.639998,21.2053312 142.464,20.725336 142.464,20.192 C142.464,19.7013309 142.591999,19.2320022 142.848,18.784 C142.655999,18.3999981 142.346669,18.1280008 141.92,17.968 C141.493331,17.8079992 141.066669,17.728 140.64,17.728 C139.551995,17.728 138.672003,18.223995 138,19.216 C137.327997,20.208005 136.992,21.6106576 136.992,23.424 C136.992,25.2373424 137.343996,26.7306608 138.048,27.904 C138.752004,29.0773392 139.861326,29.664 141.376,29.664 C142.229338,29.664 143.071996,29.4400022 143.904,28.992 C144.736004,28.5439978 145.439997,27.9466704 146.016,27.2 L147.488,28.64 C146.421328,30.1120074 145.280006,31.1253306 144.064,31.68 C142.847994,32.2346694 141.55734,32.512 140.192,32.512 Z M151.68,32.512 C150.99733,32.512 150.432002,32.2720024 149.984,31.792 C149.535998,31.3119976 149.312,30.7200035 149.312,30.016 C149.312,29.3333299 149.546664,28.7466691 150.016,28.256 C150.485336,27.7653309 151.02933,27.52 151.648,27.52 C152.309337,27.52 152.858664,27.7653309 153.296,28.256 C153.733336,28.7466691 153.952,29.3333299 153.952,30.016 C153.952,30.7200035 153.744002,31.3119976 153.328,31.792 C152.911998,32.2720024 152.36267,32.512 151.68,32.512 Z"></path>
                </g>
            </g>
        </g>
    </g>
</svg>