<?xml version="1.0" encoding="UTF-8"?>
<svg width="232px" height="80px" viewBox="0 0 232 80" version="1.1" xmlns="http://www.w3.org/2000/svg" xmlns:xlink="http://www.w3.org/1999/xlink">
    <!-- Generator: Sketch 49.3 (51167) - http://www.bohemiancoding.com/sketch -->
    <title>Logo argonaut</title>
    <desc>Created with Sketch.</desc>
    <defs>
        <rect id="path-1" x="0" y="0" width="232" height="80"></rect>
    </defs>
    <g id="Logo-argonaut" stroke="none" stroke-width="1" fill="none" fill-rule="evenodd">
        <g>
            <mask id="mask-2" fill="white">
                <use xlink:href="#path-1"></use>
            </mask>
            <g id="Rectangle"></g>
            <g mask="url(#mask-2)">
                <g transform="translate(26.000000, 18.000000)">
                    <path d="M56.704,27.184 C56.7253334,27.3120006 56.736,27.5146653 56.736,27.792 C56.736,28.3040026 56.640001,28.7839978 56.448,29.232 C54.6986579,29.2960003 53.1093405,29.6479968 51.68,30.288 C51.3173315,30.1386659 51.0560008,29.9200014 50.896,29.632 C50.7359992,29.3439986 50.656,28.9440026 50.656,28.432 C50.656,28.2186656 50.6986662,27.8133363 50.784,27.216 C50.442665,28.0053373 49.9946694,28.6239978 49.44,29.072 C48.5439955,29.8400038 47.296008,30.224 45.696,30.224 C44.2453261,30.224 43.1253373,29.9146698 42.336,29.296 C41.5466627,28.6773302 41.152,27.7920058 41.152,26.64 C41.152,24.8266576 42.0053248,23.5306706 43.712,22.752 C45.4186752,21.9733294 47.5733203,21.4026685 50.176,21.04 C50.176,20.1013286 50.1280005,19.3920024 50.032,18.912 C49.9359995,18.4319976 49.7493347,18.0320016 49.472,17.712 C49.0026643,17.178664 48.405337,16.912 47.68,16.912 C46.8693293,16.912 46.2666686,17.2533299 45.872,17.936 C45.4773314,18.6186701 45.2373338,19.4719949 45.152,20.496 C44.5333302,20.496 44.0160021,20.4746669 43.6,20.432 C43.1839979,20.3893331 42.805335,20.3040006 42.464,20.176 C42.5066669,19.6213306 42.528,19.173335 42.528,18.832 C42.528,17.9359955 42.4426675,17.1040038 42.272,16.336 C43.1893379,15.9306646 44.2293275,15.6106678 45.392,15.376 C46.5546725,15.1413322 47.6586614,15.024 48.704,15.024 C50.8800109,15.024 52.4586618,15.5146618 53.44,16.496 C53.9093357,16.9653357 54.2613322,17.6106626 54.496,18.432 C54.7306678,19.2533374 54.848,20.3786595 54.848,21.808 L54.848,24.56 C54.848,25.285337 54.8906662,25.8239982 54.976,26.176 C55.0613338,26.5280018 55.2319987,26.7786659 55.488,26.928 C55.7440013,27.0773341 56.1493306,27.1626666 56.704,27.184 Z M50.176,22.768 C48.7253261,23.0240013 47.637337,23.3653312 46.912,23.792 C46.186663,24.2186688 45.824,24.8799955 45.824,25.776 C45.824,26.3520029 45.9679986,26.7839986 46.256,27.072 C46.5440014,27.3600014 46.9013312,27.504 47.328,27.504 C47.7973357,27.504 48.2506645,27.3546682 48.688,27.056 C49.1253355,26.7573318 49.4826653,26.3146696 49.76,25.728 C50.0373347,25.1413304 50.176,24.4320042 50.176,23.6 L50.176,22.768 Z M72.32,16.048 C72.127999,17.2853395 72.032,18.5439936 72.032,19.824 C72.032,20.2506688 72.0426666,20.559999 72.064,20.752 C71.4453302,20.9866678 70.5386726,21.104 69.344,21.104 C69.3226666,20.2933293 69.1946678,19.717335 68.96,19.376 C68.7253322,19.034665 68.3946688,18.864 67.968,18.864 C67.6479984,18.864 67.3066685,19.0506648 66.944,19.424 C66.5813315,19.7973352 66.2826678,20.2933302 66.048,20.912 C65.8133322,21.5306698 65.696,22.1706634 65.696,22.832 L65.696,24.4 C65.696,25.3386714 65.7973323,26.0639974 66,26.576 C66.2026677,27.0880026 66.5279978,27.4559989 66.976,27.68 C67.4240022,27.9040011 68.0639958,28.0479997 68.896,28.112 C69.0453341,28.5386688 69.12,29.1999955 69.12,30.096 C67.9893277,30.0319997 66.3253443,30 64.128,30 C61.653321,30 59.8293392,30.0319997 58.656,30.096 C58.656,29.2426624 58.7199994,28.5813357 58.848,28.112 C59.4453363,28.0693331 59.8933318,27.9573342 60.192,27.776 C60.4906682,27.5946658 60.7039994,27.2853355 60.832,26.848 C60.9600006,26.4106645 61.024,25.754671 61.024,24.88 L61.024,20.592 C61.024,19.9306634 60.9706672,19.429335 60.864,19.088 C60.7573328,18.746665 60.5440016,18.4906675 60.224,18.32 C59.9039984,18.1493325 59.3920035,18.0426669 58.688,18 C58.688,17.1679958 58.8159987,16.5386688 59.072,16.112 C60.2026723,16.0906666 61.301328,15.9786677 62.368,15.776 C63.434672,15.5733323 64.234664,15.3333347 64.768,15.056 C65.3866698,15.2906678 65.696,15.8773286 65.696,16.816 C65.696,17.2426688 65.6480005,17.7173307 65.552,18.24 C65.4559995,18.7626693 65.3333341,19.3119971 65.184,19.888 C65.525335,18.8426614 65.791999,18.1706682 65.984,17.872 C66.4746691,17.0826627 67.0666632,16.4533357 67.76,15.984 C68.4533368,15.5146643 69.2053293,15.28 70.016,15.28 C70.890671,15.28 71.6586634,15.5359974 72.32,16.048 Z M83.296,27.44 C85.3226768,27.4613334 86.8373283,27.7439973 87.84,28.288 C88.8426717,28.8320027 89.344,29.8399926 89.344,31.312 C89.344,32.5066726 88.9546706,33.6159949 88.176,34.64 C87.3973294,35.6640051 86.2933405,36.4746637 84.864,37.072 C83.4346595,37.6693363 81.8026758,37.968 79.968,37.968 C77.7493222,37.968 76.1653381,37.6213368 75.216,36.928 C74.2666619,36.2346632 73.792,35.2693395 73.792,34.032 C73.792,33.306663 73.9893314,32.6613362 74.384,32.096 C74.7786686,31.5306638 75.3599962,31.0880016 76.128,30.768 C75.2106621,30.234664 74.752,29.3706726 74.752,28.176 C74.752,26.8319933 75.381327,25.626672 76.64,24.56 C75.0613254,23.6426621 74.272,22.2346762 74.272,20.336 C74.272,18.6933251 74.842661,17.4026714 75.984,16.464 C77.125339,15.5253286 78.7306563,15.056 80.8,15.056 C81.7173379,15.056 82.5599962,15.151999 83.328,15.344 L89.344,15.344 C89.5573344,15.877336 89.664,16.7093277 89.664,17.84 C88.7466621,17.5199984 87.7440054,17.3066672 86.656,17.2 C87.1040022,17.6906691 87.4453322,18.2239971 87.68,18.8 C87.9146678,19.3760029 88.032,19.930664 88.032,20.464 C88.032,21.9573408 87.4346726,23.1733286 86.24,24.112 C85.0453274,25.0506714 83.3173446,25.52 81.056,25.52 C80.2666627,25.52 79.5200035,25.4560006 78.816,25.328 C78.4319981,25.669335 78.24,25.9893318 78.24,26.288 C78.24,26.6506685 78.4159982,26.9119992 78.768,27.072 C79.1200018,27.2320008 79.599997,27.3279998 80.208,27.36 C80.816003,27.3920002 81.8453261,27.4186666 83.296,27.44 Z M80.96,16.784 C80.2773299,16.784 79.7600018,17.0666638 79.408,17.632 C79.0559982,18.1973362 78.88,18.9493286 78.88,19.888 C78.88,21.1040061 79.1039978,22.0319968 79.552,22.672 C80.0000022,23.3120032 80.6399958,23.632 81.472,23.632 C82.1120032,23.632 82.6079982,23.365336 82.96,22.832 C83.3120018,22.298664 83.488,21.5306717 83.488,20.528 C83.488,19.3759942 83.2640022,18.4640034 82.816,17.792 C82.3679978,17.1199966 81.7493373,16.784 80.96,16.784 Z M80.96,35.824 C82.2826733,35.824 83.3333294,35.5733358 84.112,35.072 C84.8906706,34.5706642 85.28,33.9360038 85.28,33.168 C85.28,32.7839981 85.1733344,32.4853344 84.96,32.272 C84.7466656,32.0586656 84.3680027,31.9093338 83.824,31.824 C83.2799973,31.7386662 82.474672,31.696 81.408,31.696 C79.9146592,31.6533331 78.8586698,31.5786672 78.24,31.472 C78.0053322,31.7493347 77.8400005,32.0159987 77.744,32.272 C77.6479995,32.5280013 77.6,32.826665 77.6,33.168 C77.6,34.0853379 77.8559974,34.7573312 78.368,35.184 C78.8800026,35.6106688 79.7439939,35.824 80.96,35.824 Z M99.616,30.288 C97.0773206,30.288 95.1093403,29.62134 93.712,28.288 C92.3146597,26.95466 91.616,25.1360115 91.616,22.832 C91.616,21.231992 91.9679965,19.8453392 92.672,18.672 C93.3760035,17.4986608 94.3466605,16.6026698 95.584,15.984 C96.8213395,15.3653302 98.2186589,15.056 99.776,15.056 C102.357346,15.056 104.341326,15.7386598 105.728,17.104 C107.114674,18.4693402 107.808,20.2826554 107.808,22.544 C107.808,24.1013411 107.472003,25.4666608 106.8,26.64 C106.127997,27.8133392 105.17334,28.7146635 103.936,29.344 C102.69866,29.9733365 101.258675,30.288 99.616,30.288 Z M100.064,28.24 C101.002671,28.24 101.727997,27.7813379 102.24,26.864 C102.752003,25.9466621 103.008,24.7520074 103.008,23.28 C103.008,21.9786602 102.842668,20.8533381 102.512,19.904 C102.181332,18.9546619 101.738669,18.2346691 101.184,17.744 C100.629331,17.2533309 100.021337,17.008 99.36,17.008 C98.4213286,17.008 97.7013358,17.4559955 97.2,18.352 C96.6986642,19.2480045 96.448,20.4213261 96.448,21.872 C96.448,23.7920096 96.7679968,25.3333275 97.408,26.496 C98.0480032,27.6586725 98.9333277,28.24 100.064,28.24 Z M128.608,28.112 C128.778668,28.5173354 128.864,29.1786621 128.864,30.096 C127.007991,30.0319997 125.674671,30 124.864,30 C122.794656,30 121.258672,30.0319997 120.256,30.096 C120.256,29.221329 120.341332,28.5600022 120.512,28.112 C121.13067,28.112 121.589332,27.8880022 121.888,27.44 C122.186668,26.9919978 122.336,26.2133389 122.336,25.104 L122.336,21.744 C122.336,20.4426602 122.138669,19.5200027 121.744,18.976 C121.349331,18.4319973 120.746671,18.16 119.936,18.16 C119.082662,18.16 118.352003,18.6133288 117.744,19.52 C117.135997,20.4266712 116.832,21.679992 116.832,23.28 L116.832,25.328 C116.832,26.394672 116.970665,27.1253314 117.248,27.52 C117.525335,27.9146686 117.994663,28.112 118.656,28.112 C118.826668,28.5813357 118.912,29.2426624 118.912,30.096 C117.994662,30.0319997 116.522677,30 114.496,30 C112.319989,30 110.752005,30.0319997 109.792,30.096 C109.792,29.1786621 109.877332,28.5173354 110.048,28.112 C110.880004,28.112 111.439999,27.9200019 111.728,27.536 C112.016001,27.1519981 112.16,26.4160054 112.16,25.328 L112.16,20.592 C112.16,19.9306634 112.106667,19.429335 112,19.088 C111.893333,18.746665 111.680002,18.4906675 111.36,18.32 C111.039998,18.1493325 110.528004,18.0426669 109.824,18 C109.824,17.1679958 109.951999,16.5386688 110.208,16.112 C111.338672,16.0906666 112.437328,15.9786677 113.504,15.776 C114.570672,15.5733323 115.370664,15.3333347 115.904,15.056 C116.52267,15.2906678 116.832,15.8773286 116.832,16.816 C116.832,17.3920029 116.725334,18.0319965 116.512,18.736 C116.554667,18.6719997 116.655999,18.4640018 116.816,18.112 C116.976001,17.7599982 117.173332,17.4453347 117.408,17.168 C117.920003,16.6133306 118.559996,16.1493352 119.328,15.776 C120.096004,15.4026648 120.949329,15.216 121.888,15.216 C123.360007,15.216 124.581328,15.6373291 125.552,16.48 C126.522672,17.3226709 127.008,18.639991 127.008,20.432 L127.008,25.328 C127.008,26.3733386 127.125332,27.0986646 127.36,27.504 C127.594668,27.9093354 128.010664,28.112 128.608,28.112 Z M146.624,27.184 C146.645333,27.3120006 146.656,27.5146653 146.656,27.792 C146.656,28.3040026 146.560001,28.7839978 146.368,29.232 C144.618658,29.2960003 143.02934,29.6479968 141.6,30.288 C141.237332,30.1386659 140.976001,29.9200014 140.816,29.632 C140.655999,29.3439986 140.576,28.9440026 140.576,28.432 C140.576,28.2186656 140.618666,27.8133363 140.704,27.216 C140.362665,28.0053373 139.914669,28.6239978 139.36,29.072 C138.463996,29.8400038 137.216008,30.224 135.616,30.224 C134.165326,30.224 133.045337,29.9146698 132.256,29.296 C131.466663,28.6773302 131.072,27.7920058 131.072,26.64 C131.072,24.8266576 131.925325,23.5306706 133.632,22.752 C135.338675,21.9733294 137.49332,21.4026685 140.096,21.04 C140.096,20.1013286 140.048,19.3920024 139.952,18.912 C139.856,18.4319976 139.669335,18.0320016 139.392,17.712 C138.922664,17.178664 138.325337,16.912 137.6,16.912 C136.789329,16.912 136.186669,17.2533299 135.792,17.936 C135.397331,18.6186701 135.157334,19.4719949 135.072,20.496 C134.45333,20.496 133.936002,20.4746669 133.52,20.432 C133.103998,20.3893331 132.725335,20.3040006 132.384,20.176 C132.426667,19.6213306 132.448,19.173335 132.448,18.832 C132.448,17.9359955 132.362668,17.1040038 132.192,16.336 C133.109338,15.9306646 134.149328,15.6106678 135.312,15.376 C136.474672,15.1413322 137.578661,15.024 138.624,15.024 C140.800011,15.024 142.378662,15.5146618 143.36,16.496 C143.829336,16.9653357 144.181332,17.6106626 144.416,18.432 C144.650668,19.2533374 144.768,20.3786595 144.768,21.808 L144.768,24.56 C144.768,25.285337 144.810666,25.8239982 144.896,26.176 C144.981334,26.5280018 145.151999,26.7786659 145.408,26.928 C145.664001,27.0773341 146.069331,27.1626666 146.624,27.184 Z M140.096,22.768 C138.645326,23.0240013 137.557337,23.3653312 136.832,23.792 C136.106663,24.2186688 135.744,24.8799955 135.744,25.776 C135.744,26.3520029 135.887999,26.7839986 136.176,27.072 C136.464001,27.3600014 136.821331,27.504 137.248,27.504 C137.717336,27.504 138.170664,27.3546682 138.608,27.056 C139.045336,26.7573318 139.402665,26.3146696 139.68,25.728 C139.957335,25.1413304 140.096,24.4320042 140.096,23.6 L140.096,22.768 Z M166.08,27.184 C166.101333,27.3120006 166.112,27.5146653 166.112,27.792 C166.112,28.3040026 166.016001,28.7839978 165.824,29.232 C164.031991,29.2960003 162.42134,29.6479968 160.992,30.288 C160.629332,30.1386659 160.368001,29.930668 160.208,29.664 C160.047999,29.397332 159.968,28.997336 159.968,28.464 C159.968,28.0586646 160.021333,27.5573363 160.128,26.96 C159.829332,27.7066704 159.456002,28.2826646 159.008,28.688 C157.941328,29.6906717 156.501342,30.192 154.688,30.192 C153.066659,30.192 151.850671,29.7386712 151.04,28.832 C150.229329,27.9253288 149.824,26.4160106 149.824,24.304 L149.824,20.592 C149.824,19.9306634 149.781334,19.429335 149.696,19.088 C149.610666,18.746665 149.424001,18.4906675 149.136,18.32 C148.847999,18.1493325 148.39467,18.0426669 147.776,18 C147.776,17.1893293 147.893332,16.5600022 148.128,16.112 C149.237339,16.0906666 150.287995,15.9786677 151.28,15.776 C152.272005,15.5733323 153.034664,15.3333347 153.568,15.056 C154.18667,15.2906678 154.496,15.8773286 154.496,16.816 L154.496,23.536 C154.496,24.9653405 154.645332,25.9786637 154.944,26.576 C155.242668,27.1733363 155.743996,27.472 156.448,27.472 C157.344004,27.472 158.08533,27.0400043 158.672,26.176 C159.25867,25.3119957 159.552,24.0480083 159.552,22.384 L159.552,20.432 C159.552,19.7706634 159.493334,19.269335 159.376,18.928 C159.258666,18.586665 159.034668,18.3253342 158.704,18.144 C158.373332,17.9626658 157.877337,17.8613334 157.216,17.84 C157.216,16.9866624 157.333332,16.3573354 157.568,15.952 C158.784006,15.9306666 159.914661,15.8400008 160.96,15.68 C162.005339,15.5199992 162.783997,15.3120013 163.296,15.056 C163.91467,15.2906678 164.224,15.8773286 164.224,16.816 L164.224,24.592 C164.224,25.317337 164.266666,25.8559982 164.352,26.208 C164.437334,26.5600018 164.607999,26.8053326 164.864,26.944 C165.120001,27.0826674 165.525331,27.1626666 166.08,27.184 Z M174.144,30.288 C172.607992,30.288 171.472004,29.8933373 170.736,29.104 C169.999996,28.3146627 169.632,27.0133424 169.632,25.2 L169.632,18.096 C169.01333,17.8399987 168.234671,17.7013334 167.296,17.68 C167.296,16.8906627 167.413332,16.2186694 167.648,15.664 L169.632,15.664 L169.632,11.728 C170.336004,11.6426662 171.04533,11.4506682 171.76,11.152 C172.47467,10.8533318 173.055998,10.5226685 173.504,10.16 C173.824002,10.2880006 174.037333,10.4799987 174.144,10.736 C174.250667,10.9920013 174.304,11.4613299 174.304,12.144 L174.304,15.664 L178.24,15.664 C178.24,16.3466701 178.133334,17.0293299 177.92,17.712 C176.49066,17.7546669 175.285338,17.9253318 174.304,18.224 L174.304,24.688 C174.304,25.946673 174.431999,26.8106643 174.688,27.28 C174.944001,27.7493357 175.370664,27.984 175.968,27.984 C176.672004,27.984 177.322664,27.8026685 177.92,27.44 C178.197335,27.8240019 178.357333,28.3573299 178.4,29.04 C177.973331,29.4026685 177.360004,29.7013322 176.56,29.936 C175.759996,30.1706678 174.954671,30.288 174.144,30.288 Z" id="argonaut" fill="#000000"></path>
                    <g id="thor-icon" stroke-width="1" fill="none" transform="translate(0.000000, 8.000000)">
                        <path d="M0.114031696,5.12410627e-16 C0.114031696,0.230769231 0.137104318,3.015 1.51915442,4.39961538 C1.51915442,4.51615385 0.464735562,4.02461538 0.00559036848,4.25423077 C0.00559036848,6.10384615 1.73603708,7.60961538 1.73603708,7.60961538 C1.73603708,7.60961538 0.582405938,7.275 0.00559036848,7.39269231 C-0.112080008,7.96846154 1.6368248,11.5384615 4.4043859,11.5384615 L4.62011493,11.5384615 L4.62011493,12.4765385 C4.61115122,12.5481821 4.61115122,12.620664 4.62011493,12.6923077 L4.62011493,17.6688462 C4.59358141,17.7265385 4.5116736,17.8846154 4.5116736,17.8846154 C4.5116736,17.8846154 3.92216809,26.6376923 0.114031696,26.7553846 C0.343604292,28.6015385 1.97829962,30 6.13367898,30 L23.8707578,30 C28.0261371,30 29.6619861,28.7157692 29.8927123,26.7542308 C26.0834223,26.6376923 25.4939168,17.8846154 25.4939168,17.8846154 C25.4939168,17.8846154 25.4131626,17.7265385 25.3854754,17.6676923 L25.3854754,11.5384615 L25.6023581,11.5384615 C28.3687656,11.5384615 30.1211313,8.07692308 29.8915587,7.5 C29.4324135,7.26923077 28.2695533,7.60846154 28.2695533,7.60846154 C28.2695533,7.60846154 30,6.10269231 30,4.25423077 C29.5408548,4.02461538 28.4852823,4.51615385 28.4852823,4.39961538 C29.8696397,3.015 29.8927123,0.229615385 29.8927123,0 C29.8927123,0 26.547182,0.0992307692 26.4318189,5.98615385 C26.4318189,9.31153846 25.7142603,10.0823077 25.205509,10.2046154 C23.9930427,5.00307692 15.9626163,3.07384615 15.0027952,1.15384615 C13.9345327,2.96538462 5.99870414,4.98923077 4.80008138,10.2046154 C4.29133005,10.0823077 3.57492511,9.31153846 3.57492511,5.98615385 C3.45725474,0.0980769231 0.114031696,5.12410627e-16 0.114031696,5.12410627e-16 Z M15.0027952,4.25538462 C15.5796108,4.60153846 16.2556386,4.94884615 16.9501245,5.40923077 C20.292194,7.14 23.0782132,9 23.0782132,11.5384615 L23.0782132,12.6923077 C23.0782132,13.2692308 23.0689841,13.7826923 23.0424506,14.3146154 C21.0812777,13.5126923 18.4544596,12.8007692 14.8943539,12.8007692 C11.3388627,12.8007692 8.80664233,13.4042308 6.96313977,14.2073077 C6.93951947,13.7026518 6.92759542,13.1975162 6.92737721,12.6923077 C6.93643742,12.6202839 6.93643742,12.5474084 6.92737721,12.4753846 L6.92737721,11.5384615 C6.92737721,8.88461538 9.70301373,7.14807692 13.1639071,5.30076923 C13.8583931,4.84038462 14.4259796,4.485 15.0027952,4.25423077 L15.0027952,4.25538462 Z M14.8943539,15.1084615 C18.6390405,15.1084615 21.1724145,15.9057692 22.8255679,16.7307692 C22.2487524,20.9861538 20.7801799,23.6042308 19.2931494,25.2046154 C18.3379428,26.2315385 17.3550491,26.8580769 16.5532754,27.2238462 C16.0609133,27.4518005 15.5389935,27.6094932 15.0027952,27.6923077 C14.9301164,27.6923077 14.2552422,27.6069231 13.4523149,27.2596154 C12.4160933,26.8035096 11.4837936,26.1407664 10.712441,25.3119231 C9.21618139,23.7253846 7.74760895,21.0715385 7.18002243,16.695 C8.78356971,15.8873077 11.2269605,15.1084615 14.8943539,15.1084615 Z M9.23463949,16.7307692 C9.23463949,17.8846154 10.149469,19.6153846 11.6503431,19.6153846 C13.0335468,19.6153846 13.7407227,18.4523077 13.7407227,17.9930769 L9.23463949,16.7307692 Z M20.7709509,16.7307692 L16.2648677,17.9930769 C16.2648677,18.4523077 16.9720435,19.6153846 18.3552473,19.6153846 C19.8561214,19.6153846 20.7709509,17.8846154 20.7709509,16.7307692 Z" id="Shape" fill="#000000" fill-rule="nonzero"></path>
                    </g>
                </g>
            </g>
        </g>
    </g>
</svg>